<svg viewBox="0 0 1200 300" width="1200" height="300" xmlns="http://www.w3.org/2000/svg" role="img" aria-label="Yadunandan Singh — no black boxes. rebuild first, import later.">
  <defs>
    <linearGradient id="acc" x1="0" y1="0" x2="1" y2="1">
      <stop offset="0" stop-color="#667EEA"/>
      <stop offset="1" stop-color="#764BA2"/>
    </linearGradient>
    <radialGradient id="glow" cx="0.14" cy="-0.1" r="0.9">
      <stop offset="0" stop-color="#667EEA" stop-opacity="0.16"/>
      <stop offset="0.55" stop-color="#667EEA" stop-opacity="0.05"/>
      <stop offset="1" stop-color="#667EEA" stop-opacity="0"/>
    </radialGradient>
    <pattern id="grid" width="40" height="40" patternUnits="userSpaceOnUse">
      <path d="M 40 0 H 0 V 40" fill="none" stroke="#8B95C9" stroke-opacity="0.07" stroke-width="0.6"/>
    </pattern>
  </defs>

  <style>
    .disp { font-family: 'Segoe UI','Helvetica Neue',Helvetica,Arial,sans-serif; }
    .mono { font-family: ui-monospace,'SF Mono','Cascadia Code',Menlo,Consolas,'Liberation Mono',monospace; }
    .sig  { animation: pulse 2.8s ease-in-out infinite; }
    .d1   { animation-delay: .35s; }
    .d2   { animation-delay: .7s; }
    .d3   { animation-delay: 1.05s; }
    .cur  { animation: blink 1.1s steps(2, start) infinite; }
    @keyframes pulse { 0%, 100% { opacity: .3; } 50% { opacity: 1; } }
    @keyframes blink { 0% { opacity: 1; } 50% { opacity: 0; } 100% { opacity: 1; } }
    @media (prefers-reduced-motion: reduce) {
      .sig, .cur { animation: none; opacity: 1; }
    }
  </style>

  <!-- card -->
  <rect x="1" y="1" width="1198" height="298" rx="18" fill="#0A0E1A" stroke="url(#acc)" stroke-width="1.5"/>
  <rect x="1" y="1" width="1198" height="298" rx="18" fill="url(#grid)"/>
  <rect x="1" y="1" width="1198" height="298" rx="18" fill="url(#glow)"/>

  <!-- left: identity -->
  <rect x="62" y="82" width="46" height="4" rx="2" fill="url(#acc)"/>
  <text x="60" y="142" class="disp" font-size="58" font-weight="800" letter-spacing="-1" fill="#F4F6FF">Yadunandan Singh</text>
  <text x="62" y="186" class="mono" font-size="19" fill="#A9B4E8">no black boxes. rebuild first, import later.<tspan class="cur" fill="#667EEA">&#160;&#9615;</tspan></text>

  <!-- corners -->
  <text x="62" y="266" class="mono" font-size="11.5" letter-spacing="1" fill="#59639A">est. 2007 &#183; self-taught</text>
  <text x="1138" y="266" class="mono" font-size="11.5" letter-spacing="1" fill="#59639A" text-anchor="end">32.73&#176; N, 74.87&#176; E &#183; jammu, india</text>

  <!-- right: A = U Sigma V^T -->
  <g transform="translate(782, 92)">

    <!-- A : the raw problem -->
    <g>
      <text x="29" y="-14" class="mono" font-size="15" font-style="italic" fill="#8B95C9" text-anchor="middle">A</text>
      <path d="M 10 0 H 0 V 88 H 10" fill="none" stroke="#4A5490" stroke-width="2"/>
      <path d="M 48 0 H 58 V 88 H 48" fill="none" stroke="#4A5490" stroke-width="2"/>
      <g fill="#39406B">
        <circle cx="17" cy="22" r="3"/><circle cx="29" cy="22" r="3"/><circle cx="41" cy="22" r="3"/>
        <circle cx="17" cy="44" r="3"/><circle cx="29" cy="44" r="3"/><circle cx="41" cy="44" r="3"/>
        <circle cx="17" cy="66" r="3"/><circle cx="29" cy="66" r="3"/><circle cx="41" cy="66" r="3"/>
      </g>
    </g>

    <text x="79" y="52" class="mono" font-size="26" fill="#8B95C9" text-anchor="middle">=</text>

    <!-- U : basis -->
    <g transform="translate(100, 0)">
      <text x="24" y="-14" class="mono" font-size="15" font-style="italic" fill="#8B95C9" text-anchor="middle">U</text>
      <path d="M 10 0 H 0 V 88 H 10" fill="none" stroke="#4A5490" stroke-width="2"/>
      <path d="M 38 0 H 48 V 88 H 38" fill="none" stroke="#4A5490" stroke-width="2"/>
      <line x1="15" y1="16" x2="15" y2="72" stroke="#5A63B8" stroke-width="2.5" opacity="0.85"/>
      <line x1="24" y1="16" x2="24" y2="72" stroke="#5A63B8" stroke-width="2.5" opacity="0.5"/>
      <line x1="33" y1="16" x2="33" y2="72" stroke="#5A63B8" stroke-width="2.5" opacity="0.28"/>
    </g>

    <!-- Sigma : what matters, ranked -->
    <g transform="translate(166, 0)">
      <text x="33" y="-14" class="mono" font-size="15" font-style="italic" fill="#8B95C9" text-anchor="middle">&#931;</text>
      <path d="M 10 0 H 0 V 88 H 10" fill="none" stroke="#4A5490" stroke-width="2"/>
      <path d="M 56 0 H 66 V 88 H 56" fill="none" stroke="#4A5490" stroke-width="2"/>
      <circle class="sig"    cx="17" cy="20" r="7"   fill="#F7931A"/>
      <circle class="sig d1" cx="31" cy="38" r="5.5" fill="#7C86F5"/>
      <circle class="sig d2" cx="44" cy="55" r="4"   fill="#764BA2"/>
      <circle class="sig d3" cx="55" cy="70" r="2.8" fill="#5A63B8"/>
    </g>

    <!-- V^T : how it ships -->
    <g transform="translate(250, 0)">
      <text x="24" y="-14" class="mono" font-size="15" font-style="italic" fill="#8B95C9" text-anchor="middle">V&#7488;</text>
      <path d="M 10 0 H 0 V 88 H 10" fill="none" stroke="#4A5490" stroke-width="2"/>
      <path d="M 38 0 H 48 V 88 H 38" fill="none" stroke="#4A5490" stroke-width="2"/>
      <line x1="10" y1="24" x2="38" y2="24" stroke="#5A63B8" stroke-width="2.5" opacity="0.85"/>
      <line x1="10" y1="44" x2="38" y2="44" stroke="#5A63B8" stroke-width="2.5" opacity="0.5"/>
      <line x1="10" y1="64" x2="38" y2="64" stroke="#5A63B8" stroke-width="2.5" opacity="0.28"/>
    </g>

    <text x="149" y="126" class="mono" font-size="12.5" fill="#667EEA" text-anchor="middle" opacity="0.9">keep only what carries signal</text>
  </g>
</svg>
